<svg xmlns="http://www.w3.org/2000/svg" viewBox="0 0 500 500"><g id="freepik--background-complete--inject-44"><polygon points="161.7 174.35 159.3 174.35 159.3 172.75 160.1 172.75 160.1 171.95 161.7 171.95 161.7 174.35" style="fill:#ebebeb"></polygon><path d="M156.06,174.35h-3.24v-1.6h3.24Zm-6.48,0h-3.23v-1.6h3.23Zm-6.47,0h-3.24v-1.6h3.24Zm-6.48,0h-3.24v-1.6h3.24Zm-6.48,0h-3.24v-1.6h3.24Zm-6.47,0h-3.24v-1.6h3.24Zm-6.48,0H114v-1.6h3.24Zm-6.48,0h-3.24v-1.6h3.24Zm-6.48,0H101v-1.6h3.24Zm-6.47,0H94.53v-1.6h3.24Zm-6.48,0H88.05v-1.6h3.24Zm-6.48,0H81.57v-1.6h3.24Zm-6.48,0H75.1v-1.6h3.23Z" style="fill:#ebebeb"></path><polygon points="71.86 174.35 69.46 174.35 69.46 171.95 71.06 171.95 71.06 172.75 71.86 172.75 71.86 174.35" style="fill:#ebebeb"></polygon><path d="M71.06,168.72h-1.6v-3.24h1.6Zm0-6.48h-1.6V159h1.6Zm0-6.48h-1.6v-3.24h1.6Zm0-6.48h-1.6V146h1.6Zm0-6.47h-1.6v-3.24h1.6Zm0-6.48h-1.6v-3.24h1.6Zm0-6.48h-1.6v-3.24h1.6Zm0-6.48h-1.6v-3.23h1.6Zm0-6.47h-1.6v-3.24h1.6Zm0-6.48h-1.6v-3.24h1.6Zm0-6.48h-1.6V100.7h1.6Zm0-6.48h-1.6V94.23h1.6Zm0-6.47h-1.6V87.75h1.6Z" style="fill:#ebebeb"></path><polygon points="71.06 84.51 69.46 84.51 69.46 82.11 71.86 82.11 71.86 83.71 71.06 83.71 71.06 84.51" style="fill:#ebebeb"></polygon><path d="M156.06,83.71h-3.24v-1.6h3.24Zm-6.48,0h-3.23v-1.6h3.23Zm-6.47,0h-3.24v-1.6h3.24Zm-6.48,0h-3.24v-1.6h3.24Zm-6.48,0h-3.24v-1.6h3.24Zm-6.47,0h-3.24v-1.6h3.24Zm-6.48,0H114v-1.6h3.24Zm-6.48,0h-3.24v-1.6h3.24Zm-6.48,0H101v-1.6h3.24Zm-6.47,0H94.53v-1.6h3.24Zm-6.48,0H88.05v-1.6h3.24Zm-6.48,0H81.57v-1.6h3.24Zm-6.48,0H75.1v-1.6h3.23Z" style="fill:#ebebeb"></path><polygon points="161.7 84.51 160.1 84.51 160.1 83.71 159.3 83.71 159.3 82.11 161.7 82.11 161.7 84.51" style="fill:#ebebeb"></polygon><path d="M161.7,168.72h-1.6v-3.24h1.6Zm0-6.48h-1.6V159h1.6Zm0-6.48h-1.6v-3.24h1.6Zm0-6.48h-1.6v-3.23h1.6Zm0-6.47h-1.6v-3.24h1.6Zm0-6.48h-1.6v-3.24h1.6Zm0-6.48h-1.6v-3.24h1.6Zm0-6.48h-1.6v-3.23h1.6Zm0-6.47h-1.6v-3.24h1.6Zm0-6.48h-1.6v-3.24h1.6Zm0-6.48h-1.6V100.7h1.6Zm0-6.48h-1.6V94.23h1.6Zm0-6.47h-1.6V87.75h1.6Z" style="fill:#ebebeb"></path><rect x="64.61" y="167.91" width="11.3" height="11.3" style="fill:#fff"></rect><path d="M76.7,180H63.81V167.11H76.7Zm-11.29-1.6H75.1v-9.69H65.41Z" style="fill:#ebebeb"></path><rect x="64.61" y="122.58" width="11.3" height="11.3" style="fill:#fff"></rect><path d="M76.7,134.68H63.81v-12.9H76.7Zm-11.29-1.6H75.1v-9.7H65.41Z" style="fill:#ebebeb"></path><rect x="64.61" y="77.26" width="11.3" height="11.3" style="fill:#fff"></rect><path d="M76.7,89.36H63.81V76.46H76.7Zm-11.29-1.6H75.1v-9.7H65.41Z" style="fill:#ebebeb"></path><rect x="155.25" y="167.91" width="11.3" height="11.3" style="fill:#fff"></rect><path d="M167.35,180h-12.9V167.11h12.9Zm-11.3-1.6h9.7v-9.69h-9.7Z" style="fill:#ebebeb"></path><rect x="155.25" y="122.58" width="11.3" height="11.3" style="fill:#fff"></rect><path d="M167.35,134.68h-12.9v-12.9h12.9Zm-11.3-1.6h9.7v-9.7h-9.7Z" style="fill:#ebebeb"></path><rect x="155.25" y="77.26" width="11.3" height="11.3" style="fill:#fff"></rect><path d="M167.35,89.36h-12.9V76.46h12.9Zm-11.3-1.6h9.7v-9.7h-9.7Z" style="fill:#ebebeb"></path><rect x="109.93" y="77.26" width="11.3" height="11.3" style="fill:#fff"></rect><path d="M122,89.36h-12.9V76.46H122Zm-11.3-1.6h9.7v-9.7h-9.7Z" style="fill:#ebebeb"></path><rect x="109.93" y="167.91" width="11.3" height="11.3" style="fill:#fff"></rect><path d="M122,180h-12.9V167.11H122Zm-11.3-1.6h9.7v-9.69h-9.7Z" style="fill:#ebebeb"></path><path d="M141,120h-1.59c-4.5-13.6-7.09-19.19-14.68-19.19h-1v54.91h7.09v1.75H100.39v-1.75h7.09V100.78H106.4C98.81,100.78,96,107,91.71,120H90.13L91,99h49.23Z" style="fill:#ebebeb"></path><rect x="66.11" y="309.03" width="26.48" height="11.19" style="fill:#ebebeb"></rect><rect x="204.47" y="221.66" width="26.48" height="11.19" style="fill:#ebebeb"></rect><rect x="51.34" y="323.14" width="26.48" height="11.19" style="fill:#ebebeb"></rect><rect x="422.18" y="323.14" width="26.48" height="11.19" style="fill:#ebebeb"></rect><rect x="407.41" y="57.33" width="26.48" height="11.19" style="fill:#ebebeb"></rect><rect x="422.18" y="71.44" width="26.48" height="11.19" style="fill:#ebebeb"></rect><rect x="66.11" y="57.33" width="26.48" height="11.19" style="fill:#ebebeb"></rect><rect x="256.42" y="142.06" width="192.23" height="8.25" style="fill:#ebebeb"></rect><polygon points="284.37 182.81 276.89 182.81 273.88 150.32 284.37 150.32 284.37 182.81" style="fill:#ebebeb"></polygon><polygon points="420.71 182.81 428.2 182.81 431.2 150.32 420.71 150.32 420.71 182.81" style="fill:#ebebeb"></polygon><polygon points="273.88 150.32 284.37 150.32 284.37 161.51 274.91 161.51 273.88 150.32" style="fill:#dbdbdb"></polygon><polygon points="431.2 150.32 430.17 161.51 420.71 161.51 420.71 150.32 431.2 150.32" style="fill:#dbdbdb"></polygon><path d="M326,92.55c-8.53,11.55-17.43,25-19.59,39.44,0,.22.32.29.37.08a85.38,85.38,0,0,1,3.77-11.6c5.61-1.55,11.12-2.81,14.06-8.38,3-5.72,2.62-13.18,2.05-19.42C326.66,92.34,326.21,92.32,326,92.55Z" style="fill:#ebebeb"></path><path d="M310.68,120.36c3.83-8.6,8.75-17.24,15-24.31,0,0,.11,0,.07.07a103.43,103.43,0,0,0-10.24,16.1c2.82-2.86,5.92-5.43,8.59-8.47a.06.06,0,1,1,.09.08c-2.66,3.19-5.56,6.65-9,9-.93,1.72-1.86,3.43-2.81,5.15.23-.13.47-.24.71-.36,0,0,.08,0,0,.06-.27.13-.53.27-.8.39-.45.81-.9,1.63-1.36,2.44C310.85,120.7,310.6,120.54,310.68,120.36Z" style="fill:#a6a6a6"></path><path d="M313.53,117.36a50.42,50.42,0,0,0,6.55-4.37c.05,0,.13,0,.08.08a34.61,34.61,0,0,1-6.54,4.45C313.52,117.57,313.42,117.42,313.53,117.36Z" style="fill:#a6a6a6"></path><path d="M305.51,131.86c0,.18.32.17.31,0,.05-4.78,0-9.57.08-14.36,1.22-2.47,3.85-3.83,5.67-5.81a25,25,0,0,0,3.4-4.74,33.91,33.91,0,0,0,3.95-13.16c.5-5.1-1.43-21.94-3.58-21.36-1.12.31-4.73,8.65-5.69,11.4a79.05,79.05,0,0,0-3.39,14C304.51,109,304.66,120.56,305.51,131.86Z" style="fill:#ebebeb"></path><path d="M305.48,111.28l0,0c.26-6,1.62-12.13,2.89-18,1.38-6.31,3-12.24,6.22-17.87a.1.1,0,0,1,.17.09,66.65,66.65,0,0,0-5,13.72c.22-.34.48-.66.71-1,.09-.13.29,0,.21.12a8.61,8.61,0,0,1-1,1.43,0,0,0,0,1,0,0c-1.12,4.51-1.92,9.12-2.61,13.72l.16-.18s.09,0,.07.06-.18.3-.28.45c-.34,2.34-.66,4.67-1,7a32.76,32.76,0,0,0,9.71-12.9s.05,0,0,0c-2,5.35-5.05,10.11-9.81,13.36-.09.62-.18,1.24-.26,1.86,0,.13-.23.1-.23,0,0-.55,0-1.1.05-1.65A.13.13,0,0,1,305.48,111.28Z" style="fill:#a6a6a6"></path><path d="M307.44,102.53a96.74,96.74,0,0,0,8.47-14.59s.12,0,.1,0a47.27,47.27,0,0,1-8.41,14.66C307.52,102.74,307.37,102.63,307.44,102.53Z" style="fill:#a6a6a6"></path><path d="M311.66,86.77c1.31-2.33,2.7-4.59,3.94-7,0-.06.13,0,.1.06a36,36,0,0,1-3.84,7A.12.12,0,0,1,311.66,86.77Z" style="fill:#a6a6a6"></path><path d="M311.14,87.79a0,0,0,1,1,0,0S311.12,87.79,311.14,87.79Z" style="fill:#a6a6a6"></path><path d="M303.18,119.63a48.49,48.49,0,0,1-1.12,9.4l.15,1a44.34,44.34,0,0,0,1.68-10.47.32.32,0,0,0,0-.33h0a69,69,0,0,0-1.06-14.19c-1.47-8.77-4.7-17.19-10.82-23.76a.43.43,0,0,0-.67.14c-2.47,6.27-1.61,13.76.49,20A37,37,0,0,0,296.7,111C298.8,113.92,301.47,116.41,303.18,119.63Z" style="fill:#ebebeb"></path><path d="M292.76,84.24c5.79,9.4,9.82,20.55,10.32,31.66,0,.2-.33.25-.35,0q-.21-1.5-.45-3h0a38.08,38.08,0,0,1-6.58-7.59s0-.11.08-.07a79.48,79.48,0,0,0,6.39,7q-.62-3.67-1.49-7.25l-.46-.54c-.1-.12.07-.29.18-.17l.13.15a83.18,83.18,0,0,0-3-9.62c-1.47-1.76-3.12-3.28-4.19-5.4a0,0,0,1,1,.07,0c.87,1.21,1.7,2.43,2.68,3.55.39.45.82.87,1.23,1.31a74.58,74.58,0,0,0-4.75-9.89A.13.13,0,0,1,292.76,84.24Z" style="fill:#a6a6a6"></path><path d="M293.93,95.84c1.87,2.52,4,4.93,5.75,7.53.05.08-.06.15-.12.09a37.9,37.9,0,0,1-5.76-7.55C293.75,95.83,293.87,95.77,293.93,95.84Z" style="fill:#a6a6a6"></path><path d="M299.94,104l.08.08c.05.06,0,.15-.09.09l-.08-.08C299.8,104,299.88,103.9,299.94,104Z" style="fill:#a6a6a6"></path><path d="M282.78,99.94a28.86,28.86,0,0,0,6.12,14.35,15.12,15.12,0,0,0,5,3.87c2.14,1.06,4.39,2.29,6.61,3.16a43.41,43.41,0,0,1,2.35,8.32l.21-.74c-1.42-12.25-9.35-22.72-19.49-29.44A.49.49,0,0,0,282.78,99.94Z" style="fill:#ebebeb"></path><path d="M286.29,103.56c-.08-.06,0-.19.1-.13a41.54,41.54,0,0,1,12.92,15.92c.07.17-.16.32-.25.15-.47-.83-.95-1.63-1.44-2.42h0c-2.31-.43-4.51-2.06-6.22-3.61-.05,0,0-.11.06-.07a14.2,14.2,0,0,0,2.93,2.06c.95.48,2,.78,2.94,1.16-.85-1.36-1.75-2.66-2.68-3.93a27.25,27.25,0,0,1-7-3.91c-.06,0,0-.16.07-.11a70.41,70.41,0,0,0,6.46,3.45,57.2,57.2,0,0,0-4.56-5.32c-.79-.41-1.59-.83-2.35-1.28-.06,0,0-.14.05-.11a8.32,8.32,0,0,1,1.8.88C288.24,105.37,287.29,104.45,286.29,103.56Z" style="fill:#a6a6a6"></path><path d="M286.5,107.79a2.76,2.76,0,0,1,.39.28s0,.08-.05.06a2,2,0,0,1-.4-.23C286.37,107.86,286.43,107.75,286.5,107.79Z" style="fill:#a6a6a6"></path><polygon points="315.5 142.06 294.62 142.06 295.64 128.38 296.04 123.91 313.89 123.91 314.28 128.38 315.5 142.06" style="fill:#dbdbdb"></polygon><polygon points="314.28 128.38 295.64 128.38 296.04 123.91 313.89 123.91 314.28 128.38" style="fill:#c7c7c7"></polygon><rect x="294.62" y="120.25" width="20.7" height="4.58" style="fill:#dbdbdb"></rect><rect x="335.13" y="110.92" width="49.7" height="12.52" transform="translate(477.17 -242.8) rotate(90)" style="fill:#c7c7c7"></rect><rect x="357.25" y="86.15" width="5.46" height="12.52" transform="translate(452.39 -267.58) rotate(90)" style="fill:#dbdbdb"></rect><rect x="358.97" y="96.89" width="2.03" height="12.52" transform="translate(463.13 -256.83) rotate(90)" style="fill:#dbdbdb"></rect><rect x="357.25" y="126.52" width="5.46" height="12.52" transform="translate(492.76 -227.2) rotate(90)" style="fill:#dbdbdb"></rect><rect x="341.63" y="108.67" width="57.97" height="8.75" transform="translate(483.66 -257.57) rotate(90)" style="fill:#dbdbdb"></rect><rect x="359.43" y="98.03" width="22.3" height="5.25" transform="translate(471.23 -269.92) rotate(90)" style="fill:#ebebeb"></rect><rect x="384.62" y="114.1" width="57.97" height="8.75" transform="translate(202.73 -256.54) rotate(44.67)" style="fill:#c7c7c7"></rect><rect x="405.48" y="118.81" width="22.3" height="5.25" transform="translate(205.68 -257.81) rotate(44.67)" style="fill:#dbdbdb"></rect><rect x="360.39" y="112.6" width="44.04" height="14.85" transform="translate(502.43 -262.38) rotate(90)" style="fill:#a6a6a6"></rect><rect x="380.36" y="127.89" width="4.1" height="14.85" transform="translate(517.73 -247.09) rotate(90)" style="fill:#c7c7c7"></rect><rect x="381.61" y="122.35" width="1.59" height="14.85" transform="translate(512.19 -252.63) rotate(90)" style="fill:#c7c7c7"></rect><rect x="320.23" y="115.89" width="41.38" height="10.26" transform="translate(586.63 -144.51) rotate(113.23)" style="fill:#a6a6a6"></rect><rect x="333.32" y="129.11" width="3.86" height="10.26" transform="translate(590.86 -120.88) rotate(113.23)" style="fill:#c7c7c7"></rect><rect x="343.03" y="106.49" width="3.86" height="10.26" transform="translate(583.61 -161.34) rotate(113.23)" style="fill:#c7c7c7"></rect><rect x="342.12" y="111.38" width="1.5" height="10.26" transform="translate(585.17 -152.6) rotate(113.23)" style="fill:#c7c7c7"></rect><polygon points="375.92 256.19 318.06 271.32 298.63 197.04 341.6 185.8 356.5 181.91 360.2 196.06 375.92 256.19" style="fill:#ebebeb"></polygon><rect x="307" y="201.83" width="48.72" height="1.97" transform="translate(703.24 315.2) rotate(165.35)" style="fill:#dbdbdb"></rect><rect x="308.25" y="206.64" width="48.72" height="1.97" transform="translate(706.94 324.36) rotate(165.35)" style="fill:#dbdbdb"></rect><rect x="309.51" y="211.46" width="48.72" height="1.97" transform="translate(710.63 333.51) rotate(165.35)" style="fill:#dbdbdb"></rect><rect x="310.77" y="216.27" width="48.72" height="1.97" transform="translate(714.33 342.66) rotate(165.35)" style="fill:#dbdbdb"></rect><rect x="312.03" y="221.09" width="48.72" height="1.97" transform="translate(718.02 351.82) rotate(165.35)" style="fill:#dbdbdb"></rect><rect x="313.29" y="225.9" width="48.72" height="1.97" transform="translate(721.72 360.97) rotate(165.35)" style="fill:#dbdbdb"></rect><rect x="314.55" y="230.71" width="48.72" height="1.97" transform="translate(725.41 370.12) rotate(165.35)" style="fill:#dbdbdb"></rect><rect x="315.81" y="235.53" width="48.72" height="1.97" transform="translate(729.11 379.28) rotate(165.35)" style="fill:#dbdbdb"></rect><rect x="317.07" y="240.34" width="48.72" height="1.97" transform="translate(732.8 388.43) rotate(165.35)" style="fill:#dbdbdb"></rect><rect x="318.33" y="245.16" width="48.72" height="1.97" transform="translate(736.5 397.58) rotate(165.35)" style="fill:#dbdbdb"></rect><rect x="319.59" y="249.97" width="48.72" height="1.97" transform="matrix(-0.97, 0.25, -0.25, -0.97, 740.19, 406.74)" style="fill:#dbdbdb"></rect><rect x="320.84" y="254.79" width="48.72" height="1.97" transform="translate(743.89 415.89) rotate(165.35)" style="fill:#dbdbdb"></rect><polygon points="391.29 277.62 331.57 280.96 327.28 204.3 371.62 201.82 387.82 215.57 391.29 277.62" style="fill:#ebebeb"></polygon><polygon points="371.62 201.82 387.82 215.57 372.44 216.43 371.62 201.82" style="fill:#dbdbdb"></polygon><rect x="333.86" y="215.91" width="33.25" height="1.97" transform="translate(712.54 413.87) rotate(176.8)" style="fill:#dbdbdb"></rect><rect x="334.14" y="220.87" width="33.25" height="1.97" transform="translate(713.37 423.78) rotate(176.8)" style="fill:#dbdbdb"></rect><rect x="334.41" y="225.84" width="33.25" height="1.97" transform="translate(714.21 433.69) rotate(176.8)" style="fill:#dbdbdb"></rect><rect x="334.68" y="230.38" width="48.72" height="1.97" transform="translate(730.45 442.31) rotate(176.8)" style="fill:#dbdbdb"></rect><rect x="334.96" y="235.35" width="48.72" height="1.97" transform="translate(731.28 452.22) rotate(176.8)" style="fill:#dbdbdb"></rect><rect x="335.24" y="240.32" width="48.72" height="1.97" transform="translate(732.11 462.14) rotate(176.8)" style="fill:#dbdbdb"></rect><rect x="335.51" y="245.28" width="48.72" height="1.97" transform="translate(732.95 472.05) rotate(176.8)" style="fill:#dbdbdb"></rect><rect x="335.79" y="250.25" width="48.72" height="1.97" transform="translate(733.78 481.96) rotate(176.8)" style="fill:#dbdbdb"></rect><rect x="336.07" y="255.22" width="48.72" height="1.97" transform="translate(734.61 491.88) rotate(176.8)" style="fill:#dbdbdb"></rect><rect x="336.35" y="260.19" width="48.72" height="1.97" transform="translate(735.45 501.79) rotate(176.8)" style="fill:#dbdbdb"></rect><rect x="336.63" y="265.16" width="48.72" height="1.97" transform="translate(736.28 511.7) rotate(176.8)" style="fill:#dbdbdb"></rect><rect x="336.9" y="270.13" width="48.72" height="1.97" transform="translate(737.11 521.62) rotate(176.8)" style="fill:#dbdbdb"></rect></g><g id="freepik--Desk--inject-44"><polygon points="47.53 417.76 98.15 417.52 148.77 417.43 250 417.27 351.23 417.43 401.85 417.52 452.47 417.76 401.85 418.01 351.23 418.1 250 418.26 148.77 418.1 98.15 418.01 47.53 417.76" style="fill:#263238"></polygon></g><g id="freepik--Character--inject-44"><path d="M160.65,191c-6.16-13.82-19.53-22.89-32.38-19.45-27.57,7.37-23.82,49.05-43.62,76-23.92,32.56-24.21,59.93-3.39,63.9,23.32,4.44,45.11-20.57,42.63-72.95-1.55-32.76,5.36-44.36,14.23-46.88,6.52-1.85,13.8,6,13.8,6Z" style="fill:#263238"></path><path d="M123.5,220.37c-.13,5.21.33,10.41.6,15.6s.66,10.36.82,15.53a153.55,153.55,0,0,1-.21,15.48,75.77,75.77,0,0,1-2.39,15.17,39.75,39.75,0,0,1-6.38,13.75,44.77,44.77,0,0,1-11.41,10.3,34.08,34.08,0,0,1-14.59,5.12,30.87,30.87,0,0,1-7.86-.14,26.54,26.54,0,0,1-3.86-.84,13.9,13.9,0,0,1-3.65-1.5,20,20,0,0,0,7.38,3,32,32,0,0,0,8.07.68,33.9,33.9,0,0,0,8-1.41,36.33,36.33,0,0,0,7.47-3.29,42.92,42.92,0,0,0,6.62-4.71l1.5-1.36,1.45-1.41a30.38,30.38,0,0,0,2.71-3.06,41.6,41.6,0,0,0,6.89-14.49c2.72-10.33,2.79-21,2.13-31.35-.33-5.21-.9-10.39-1.53-15.56S123.92,225.55,123.5,220.37Z" style="fill:#263238"></path><path d="M154.61,183a42.81,42.81,0,0,0-7.55-7.72,23.35,23.35,0,0,0-20-4.18,30.46,30.46,0,0,0-5,1.77,26,26,0,0,0-4.54,2.56,30.12,30.12,0,0,0-7,7.63,51.11,51.11,0,0,0-4.65,9.51c-2.57,6.66-4.35,13.7-6.43,20.67a142.82,142.82,0,0,1-7.54,20.62,141.13,141.13,0,0,1-11.37,18.75c-4.12,6-8.4,11.83-11.67,18.23a42.68,42.68,0,0,0-3.91,10l-.58,2.63c-.12.89-.18,1.79-.27,2.68L64,287.45l0,1.36.06,2.71c-1.19-7.2.43-14.73,3.55-21.34s7.21-12.72,11.1-18.83,7.77-12.19,10.76-18.69a146.18,146.18,0,0,0,7.24-20.28c2.12-6.91,3.91-14,6.66-20.83a53.56,53.56,0,0,1,5.07-9.91,30.28,30.28,0,0,1,7.88-8,27.7,27.7,0,0,1,5-2.6,30.66,30.66,0,0,1,5.34-1.69,23.59,23.59,0,0,1,20.88,5.34A38.42,38.42,0,0,1,154.61,183Z" style="fill:#263238"></path><path d="M166,193.57c0-2.63-2-6-3.67-6.39s-14.19,5.28-15.19,8.54,4.66,6,4.66,6Z" style="fill:#4E09B2"></path><path d="M153.62,297.38c7.24,43.35,18.07,77.95,29.53,86.89,9.25,7.22,22.6,12.84,36.45,17.14a352.52,352.52,0,0,0,45.19,10.26c4.7.78,8.62,1.34,11.4,1.77,6.88,1,21.93-43.75,17.48-49.72-1-1.37-5.5-2.72-11.83-4.06-21.31-4.45-65.92-7.94-68.25-10.56s-23.86-34.22-41.17-58.54C160.3,273.54,149.61,273.34,153.62,297.38Z" style="fill:#f7a9a0"></path><path d="M262.69,407.7c.83.47,12.61,6.77,19.95,9.25,5.48,1.86,21.4,6.78,24,.95,1.81-4-7.21-8-13.53-10.94-3.32-1.56-7.34-5.3-6.25-7.43,1.92-3.73,10.48.48,16.07,4.07,10.81,6.94,25.08,19.21,32.11,13.88,2.65-2-.15-6-4.34-10,6.87,4.74,14.24,8.71,17.28,6.59,1.74-1.21,1.9-3,1.05-5,2.15.81,4.08.76,5.49-.61,2.4-2.3,1.44-5.89-.91-9.64a2.76,2.76,0,0,0,2.15-1.28c5.19-7.19-18.2-29.56-26.53-31.93-24.5-7-50.94-6-50.94-6C268.26,366.91,262.67,407.68,262.69,407.7Z" style="fill:#f7a9a0"></path><path d="M300.12,386.23a40.54,40.54,0,0,1,16.24,7.1c5.6,4.22,9.95,9.85,15.09,14.57.14.13-.07.34-.21.21-2.4-2.43-5.07-4.63-7.58-7s-4.83-4.65-7.43-6.76a40.09,40.09,0,0,0-16.13-8.05C300,386.32,300.06,386.22,300.12,386.23Z" style="fill:#263238"></path><path d="M305.21,375.93c6.42,2.07,13,4.17,18.92,7.51,6.46,3.66,11.39,9.39,16.24,14.9q4.36,5,8.51,10.12c.12.14-.08.35-.2.21q-7.38-8.54-15.26-16.62a53,53,0,0,0-17-11.82c-3.66-1.59-7.43-2.89-11.2-4.18A.06.06,0,1,1,305.21,375.93Z" style="fill:#263238"></path><path d="M312.57,367.05c6.26,1.58,11.73,2.94,17.18,6.57,7.21,4.82,14,12.69,16.42,15.49,2.64,3.08,5.18,6.25,7.67,9.45.1.13-.13.31-.23.18a209.67,209.67,0,0,0-18.44-19.95,41.73,41.73,0,0,0-10.48-7.5,75.06,75.06,0,0,0-12.14-4.19S312.54,367.05,312.57,367.05Z" style="fill:#263238"></path><path d="M160.51,342.77l37.7-22.23s-16.09-26-29.84-38.27-19.3-2.64-17.21,15.19S160.51,342.77,160.51,342.77Z" style="fill:#4E09B2"></path><path d="M172.88,331.46a15.81,15.81,0,0,1-1.34,4.33c-.11.22-.21.45-.32.67l-1.55.91c.23-.7.51-1.39.81-2.07A15.81,15.81,0,0,1,172.88,331.46Zm-15.35-19.87a15.48,15.48,0,0,0-4.33-1.34,17.46,17.46,0,0,0,8.17,3.75A16.16,16.16,0,0,0,157.53,311.59Zm12.93-22a15.73,15.73,0,0,0,2.11,4,17.38,17.38,0,0,0-3.13-8.43A16.27,16.27,0,0,0,170.46,289.61Zm17.33,17.9a17,17,0,0,0-3.67.92,16,16,0,0,0-4,2.12,16,16,0,0,0,4.43-1,17.29,17.29,0,0,0,3.37-1.66A1.89,1.89,0,0,0,187.79,307.51Z" style="fill:#fff"></path><path d="M192.27,314.89c-6,3.09-22.17,12-31.86,19.17-.06,0,.09.29.15.26,9-4.71,26.19-15.43,31.93-19.05C192.6,315.2,192.39,314.83,192.27,314.89Z" style="fill:#263238"></path><path d="M195.11,322.38l-34.59,20.39s-7.27-27.47-9.36-45.31c-1.34-11.51.49-19.6,5.66-20.59Z" style="fill:#263238"></path><path d="M196.93,417.73H72.29s27.07-104.55,52.13-134c.56-.68,1.14-1.31,1.72-1.91.12-.14.22-.24.34-.36a26.57,26.57,0,0,1,6.69-5.18c.44-.24.88-.46,1.34-.66,9.65-4.44,19.84-.76,27.2,5.54,2.33,2,28.75,36.37,31.09,49.47,2,11.57-5.8,24-5.8,24Z" style="fill:#4E09B2"></path><path d="M141.86,290.2a15.9,15.9,0,0,1-1.35,4.34,15.55,15.55,0,0,1-2.41,3.84,15.72,15.72,0,0,1,1.35-4.33A15.9,15.9,0,0,1,141.86,290.2ZM123.1,348.72a16.16,16.16,0,0,0-1.34,4.33,17.46,17.46,0,0,0,3.75-8.17A16.16,16.16,0,0,0,123.1,348.72Zm-15.4,61.07a15.44,15.44,0,0,0-1.34,4.34,17.82,17.82,0,0,0,3.75-8.18A16.16,16.16,0,0,0,107.7,409.79Zm62.78-74.49a15.9,15.9,0,0,0-1.35,4.34,15.42,15.42,0,0,0,2.41-3.85,15.81,15.81,0,0,0,1.34-4.33A15.81,15.81,0,0,0,170.48,335.3Zm19.75,39.9a16,16,0,0,0-1.32,4.28,13.9,13.9,0,0,0,1.63-2.32h0Zm-47.47,28.37a16.23,16.23,0,0,0-1.34,4.34,15.42,15.42,0,0,0,2.41-3.85,16.16,16.16,0,0,0,1.34-4.33A16.16,16.16,0,0,0,142.76,403.57Zm14.77-92a15.48,15.48,0,0,0-4.33-1.34,17.46,17.46,0,0,0,8.17,3.75A16.16,16.16,0,0,0,157.53,311.59Zm8.24,49.63a16.16,16.16,0,0,0-4.33-1.34,15.85,15.85,0,0,0,3.84,2.41,16.16,16.16,0,0,0,4.33,1.34A16.16,16.16,0,0,0,165.77,361.22Zm3,54.27a16.23,16.23,0,0,0-4.34-1.34,17.56,17.56,0,0,0,8.18,3.75A16.16,16.16,0,0,0,168.77,415.49Zm-60.29-45.68a16.23,16.23,0,0,0-4.34-1.34,15.72,15.72,0,0,0,3.85,2.41,16.16,16.16,0,0,0,4.33,1.34A16.16,16.16,0,0,0,108.48,369.81Zm81.05-24.46a13.85,13.85,0,0,0,.57,3c.17-.42.35-.86.52-1.31A12.8,12.8,0,0,0,189.53,345.35Zm-2.42,57.9a16.07,16.07,0,0,0,2.11,4,15.82,15.82,0,0,0-1-4.42,16.09,16.09,0,0,0-2.12-4A16.36,16.36,0,0,0,187.11,403.25Zm-64.59-83.91a15.73,15.73,0,0,0,2.11,4,16,16,0,0,0-1-4.42,16.44,16.44,0,0,0-2.12-4A15.83,15.83,0,0,0,122.52,319.34Zm19.79,51.3a16.07,16.07,0,0,0,2.11,4,15.49,15.49,0,0,0-1-4.42,15.73,15.73,0,0,0-2.11-4A16,16,0,0,0,142.31,370.64ZM88.56,391.55a16,16,0,0,0,2.11,4,16,16,0,0,0-1-4.43,16.44,16.44,0,0,0-2.12-4A15.83,15.83,0,0,0,88.56,391.55Zm76.76-2.3a15.93,15.93,0,0,0,4-2.12,15.49,15.49,0,0,0-4.42,1,15.73,15.73,0,0,0-4,2.11A16,16,0,0,0,165.32,389.25ZM93.07,349.72h0c-.16.47-.33.93-.49,1.4l.65-.22a15.46,15.46,0,0,0,4-2.12A15.32,15.32,0,0,0,93.07,349.72Zm89.16-40.47a13.21,13.21,0,0,0-2.13,1.3,12.34,12.34,0,0,0,2.66-.46C182.58,309.81,182.4,309.53,182.23,309.25Zm-59.07,80a16.44,16.44,0,0,0,4-2.12,15.49,15.49,0,0,0-4.42,1,16,16,0,0,0-4,2.11A16,16,0,0,0,123.16,389.25ZM75.62,411.79c-.67.26-1.33.53-2,.85q-.14.54-.27,1a20.11,20.11,0,0,0,2.65-.77,16,16,0,0,0,4-2.11A15.82,15.82,0,0,0,75.62,411.79Zm68-78.21a16.44,16.44,0,0,0,4-2.12,15.49,15.49,0,0,0-4.42,1,16,16,0,0,0-4,2.11A16.33,16.33,0,0,0,143.61,333.58Z" style="fill:#fff"></path><path d="M168.3,350.17a107.63,107.63,0,0,0-15.75,2.73c-2.56.68-5.07,1.47-7.58,2.32-1.25.43-2.51.81-3.78,1.18a16.52,16.52,0,0,1-4.05.8.1.1,0,0,0,0,.19,28.33,28.33,0,0,0,3.91-.1,29.64,29.64,0,0,0,3.73-.74c2.6-.66,5.17-1.45,7.77-2.14,5.25-1.4,10.49-2.79,15.82-3.81C168.61,350.56,168.55,350.14,168.3,350.17Z" style="fill:#263238"></path><path d="M181.46,354.75a118.16,118.16,0,0,0-13.17-.51c-2.21,0-4.39.22-6.58.45-1,.11-2.09.24-3.13.38s-2.27.46-3.42.6c-.12,0-.11.21,0,.19,1.08-.1,2.19,0,3.28-.05l3.29-.12c2.19-.07,4.38-.12,6.58-.21,4.39-.19,8.76-.33,13.15-.36C181.71,355.11,181.69,354.78,181.46,354.75Z" style="fill:#263238"></path><path d="M121.3,285.52c-19.77,21.17-64,97.24-48.79,111.89s110.8,14.93,127.83,14.93c7.75,0-8.13-51-16.44-52-6.92-.85-57.23-2.48-58.25-4.52-1.16-2.3,5.41-20.86,11.22-52.21C143.1,270,130,276.17,121.3,285.52Z" style="fill:#f7a9a0"></path><path d="M211.48,349.84c17.18-2.4,22-.37,35.39-10.09,8.81-6.38,16.66-3.49,11.64,6.64-8.23,16.58-29.75,24.32-38,24.86Z" style="fill:#f7a9a0"></path><path d="M165.84,366.38s19.31-10.72,37.36-15.09c12.49-3,41.69-7.75,67.08,21,8,9.06,8.43,21.87-3.84,14.22-9.53-5.94-14.66-11.87-21.06-13.66,0,0,3.51,18.21-3.28,24.3a167.87,167.87,0,0,1-18.87,14.64,33.94,33.94,0,0,1-3.06-3.29s-6.88,5.09-19.83,3.86Z" style="fill:#f7a9a0"></path><path d="M215.58,350.32c6,3.11,18.51,9.92,26.84,19.06,9.24,10.15,24.31,32.2,16.75,38.95-5.55,4.94-12-3-12-3s4.31,10.43-1.68,13.8c-5.46,3.07-10.11-3.35-10.11-3.35s1.52,6.78-4.3,8.73c-7,2.34-9.06-12.24-18.21-16C210.78,407.69,215.58,350.32,215.58,350.32Z" style="fill:#f7a9a0"></path><path d="M229.78,377.5c5.14,3.85,14.56,15.58,17.16,27.73.06.28-.11.47-.22.23a134.87,134.87,0,0,0-17-27.87C229.64,377.53,229.73,377.45,229.78,377.5Z" style="fill:#263238"></path><path d="M220.09,387c4.08,3.78,13.25,16.3,15.47,28.71.05.27-.14.45-.24.21A144,144,0,0,0,220,387.07C219.94,387,220,386.94,220.09,387Z" style="fill:#263238"></path><path d="M204.14,412.53a45.85,45.85,0,0,0,6.08-.48,20.25,20.25,0,0,0,5.84-1.6l.05,0,0,0a39.73,39.73,0,0,1,5.35,6,31.22,31.22,0,0,1,2.16,3.42,11.87,11.87,0,0,0,2.36,3.16,5.61,5.61,0,0,0,3.48,1.53,5,5,0,0,0,3.5-1.37,6.57,6.57,0,0,0,1.78-3.37,13.53,13.53,0,0,0,.28-3.91l-.06-.86.54.67a10.52,10.52,0,0,0,5.18,3.72,6.12,6.12,0,0,0,3.15,0,5.67,5.67,0,0,0,2.7-1.57c1.4-1.6,1.63-3.94,1.49-6.08a24.78,24.78,0,0,0-1.37-6.41l-.59-1.71,1.15,1.4a13.19,13.19,0,0,0,5.2,4,6.58,6.58,0,0,0,3.18.45,6.44,6.44,0,0,0,2.95-1.2,5.3,5.3,0,0,0,1.78-2.59,9.51,9.51,0,0,0,.38-3.24,22.32,22.32,0,0,0-1.41-6.52,59.63,59.63,0,0,0-6.21-12,117.65,117.65,0,0,0-8.08-10.9L244.1,372l1.39.42a22.84,22.84,0,0,1,4.48,2.05q2.1,1.21,4.09,2.6c2.66,1.83,5.13,3.91,7.69,5.8a41.34,41.34,0,0,0,8.06,5c1.4.56,3,1,4.22.28s1.59-2.3,1.49-3.8a14.36,14.36,0,0,0-1.07-4.5,23.63,23.63,0,0,0-2.32-4.09,52,52,0,0,0-6.22-7.22,82.92,82.92,0,0,0-7.21-6.28,66.53,66.53,0,0,0-7.91-5.35l-.44-.25.36-.36a39.56,39.56,0,0,0,7.33-9.56,12.22,12.22,0,0,0,1.52-5.68,5.51,5.51,0,0,0-.73-2.75,3.55,3.55,0,0,0-2.2-1.62,8.72,8.72,0,0,0-5.66,1.08,58.75,58.75,0,0,0-5.26,3c-3.39,2.18-6.71,4.73-10.69,6a36.9,36.9,0,0,1-6,1.21c-2,.28-4.05.52-6.07.77-4,.49-8.08,1-12.1,1.66a114.58,114.58,0,0,0-23.61,6.08,114.8,114.8,0,0,1,23.56-6.38c4-.7,8.05-1.27,12.09-1.81l6-.83a34.77,34.77,0,0,0,5.94-1.22c3.86-1.22,7.11-3.74,10.53-6,1.72-1.11,3.47-2.16,5.3-3.1A9.3,9.3,0,0,1,256.8,336a4.28,4.28,0,0,1,2.6,1.9,6.16,6.16,0,0,1,.83,3.08,12.71,12.71,0,0,1-1.57,6,39.88,39.88,0,0,1-7.43,9.79l-.07-.6a67.65,67.65,0,0,1,8,5.37,84.47,84.47,0,0,1,7.31,6.32,52.18,52.18,0,0,1,6.36,7.31,24.65,24.65,0,0,1,2.43,4.24,15.33,15.33,0,0,1,1.16,4.81,6.83,6.83,0,0,1-.29,2.56,3.78,3.78,0,0,1-1.65,2.11,4.06,4.06,0,0,1-2.62.46,9.44,9.44,0,0,1-2.44-.65,40,40,0,0,1-8.29-5.08c-2.59-1.94-5-4-7.64-5.82-1.3-.91-2.64-1.78-4-2.57a21.29,21.29,0,0,0-4.23-2l.45-.72a119.44,119.44,0,0,1,8.09,11,60.14,60.14,0,0,1,6.23,12.19,23.11,23.11,0,0,1,1.43,6.75,10.36,10.36,0,0,1-.43,3.49,6,6,0,0,1-2,2.93,7.08,7.08,0,0,1-3.3,1.33,7.44,7.44,0,0,1-3.5-.5,13.91,13.91,0,0,1-5.47-4.24l.56-.31a25.62,25.62,0,0,1,1.38,6.59,13,13,0,0,1-.2,3.4,6.61,6.61,0,0,1-1.48,3.11,6.53,6.53,0,0,1-6.43,1.7,11.15,11.15,0,0,1-5.46-3.94l.48-.19a14.06,14.06,0,0,1-.32,4.09,6.82,6.82,0,0,1-2,3.61,5.38,5.38,0,0,1-3.82,1.43,6,6,0,0,1-3.72-1.68,12.39,12.39,0,0,1-2.39-3.28,32.08,32.08,0,0,0-2.09-3.41,39.86,39.86,0,0,0-5.24-6.06h.08a20.47,20.47,0,0,1-5.9,1.54A47.79,47.79,0,0,1,204.14,412.53Z" style="fill:#263238"></path><path d="M90.31,322.58l41.17,14.83s9.74-29,10.41-47.4-10.27-16.54-22.67-3.55S90.31,322.58,90.31,322.58Z" style="fill:#4E09B2"></path><path d="M141.86,290.2a15.9,15.9,0,0,1-1.35,4.34,15.55,15.55,0,0,1-2.41,3.84,15.72,15.72,0,0,1,1.35-4.33A15.9,15.9,0,0,1,141.86,290.2ZM96.6,324.85l1.09.39a15.14,15.14,0,0,0,1.24-4.07A14.93,14.93,0,0,0,96.6,324.85Zm25.92-5.51a15.73,15.73,0,0,0,2.11,4,16,16,0,0,0-1-4.42,16.44,16.44,0,0,0-2.12-4A15.83,15.83,0,0,0,122.52,319.34Zm-12.36-20.61a20.23,20.23,0,0,0-2.6,1.19h0l-.67.84a16.93,16.93,0,0,0,3.69-.94,15.46,15.46,0,0,0,4-2.12A16,16,0,0,0,110.16,298.73Z" style="fill:#fff"></path><path d="M132,329.23c-6.23-2.68-23.36-9.43-35.09-12.29-.07,0-.17.25-.11.28,9.37,3.92,28.6,10.32,35,12.42C132,329.68,132.16,329.28,132,329.23Z" style="fill:#263238"></path><path d="M140,313.63c0-.06-.07-.09-.1,0-.74,1.42-1.4,2.86-2,4.33q1.08-4.83,1.93-9.68a.09.09,0,0,0-.18,0c-2.76,9.49-5.76,18.94-8.32,28.49-1.05-.05-2.11-.12-3.15-.26a.14.14,0,0,0-.06.27c1.14.28,2.26.64,3.37,1a.54.54,0,0,0,.71-.24,141.75,141.75,0,0,0,5-16.6c.43-.86.85-1.72,1.22-2.61A32.67,32.67,0,0,0,140,313.63Z" style="fill:#263238"></path><path d="M142.27,278c.2,2.23,8.49,17.7,18.41,18.65,3.23.31,5.68-17.26,5.68-17.26l.48-1.26,6.66-17.58-19.37-16.75-2.82-2.25s-1.51,4.93-3.32,11.09c-.09.28-.18.57-.26.87s-.23.68-.31,1c-.29.92-.57,1.86-.84,2.8-.2.71-.4,1.4-.59,2.16s-.39,1.49-.6,2.25C143.51,269.2,142.21,277,142.27,278Z" style="fill:#f7a9a0"></path><path d="M148,252.63a37.68,37.68,0,0,0,18.85,25.49l6.66-17.58-19.37-16.75-2.82-2.25S149.8,246.47,148,252.63Z" style="fill:#263238"></path><path d="M202.39,235.06c-1.7,33-21.63,35.66-28.73,35.28-6.45-.34-28.37-2.31-30.09-35.27s14.15-42.58,28.94-42.58S204.09,202.11,202.39,235.06Z" style="fill:#f7a9a0"></path><path d="M198,229.13a20.34,20.34,0,0,1-2.19-.63,3.69,3.69,0,0,1-2.11-1.07,1.19,1.19,0,0,1,.1-1.43,2.94,2.94,0,0,1,2.92-.47,4.31,4.31,0,0,1,2.56,1.71A1.24,1.24,0,0,1,198,229.13Z" style="fill:#263238"></path><path d="M177,227.73c.77,0,1.49-.2,2.25-.31a3.67,3.67,0,0,0,2.25-.75,1.17,1.17,0,0,0,.1-1.43,2.9,2.9,0,0,0-2.81-.89,4.33,4.33,0,0,0-2.79,1.31A1.26,1.26,0,0,0,177,227.73Z" style="fill:#263238"></path><path d="M180.31,235.88c0-.09-.19.1-.19.19,0,2.25-.46,4.81-2.53,5.46-.07,0-.07.13,0,.12C180.09,241.43,180.63,238,180.31,235.88Z" style="fill:#263238"></path><path d="M178.42,233.44c-3.6-.46-4.24,6.76-.91,7.19S181.43,233.82,178.42,233.44Z" style="fill:#263238"></path><path d="M177,233.69c-.67.35-1.35,1-2.12,1s-1.49-.81-2-1.59c0-.08-.12,0-.13.07-.14,1.38.26,2.85,1.73,3.19s2.42-.83,2.89-2.19C177.43,234,177.24,233.55,177,233.69Z" style="fill:#263238"></path><path d="M192.58,236.5c0-.08.16.12.15.22-.29,2.22-.25,4.83,1.71,5.77.06,0,0,.14,0,.12C192,242,192,238.57,192.58,236.5Z" style="fill:#263238"></path><path d="M194.8,234.36c3.62.08,3.2,7.32-.15,7.25S191.76,234.3,194.8,234.36Z" style="fill:#263238"></path><path d="M196.28,234.92c.55.42,1.08,1.15,1.76,1.24s1.42-.65,2-1.38c.06-.07.11,0,.11.09-.05,1.38-.59,2.8-1.93,3s-2.05-1.07-2.3-2.47C195.84,235.13,196.06,234.76,196.28,234.92Z" style="fill:#263238"></path><path d="M178.64,253.13c.46.59.9,1.38,1.7,1.56a5.88,5.88,0,0,0,2.46-.24.08.08,0,0,1,.09.13,3,3,0,0,1-3,.82,2.38,2.38,0,0,1-1.49-2.2C178.39,253.06,178.57,253,178.64,253.13Z" style="fill:#263238"></path><path d="M188.19,246.84s.2,3.38.08,5c0,.14-5.86.88-8.07-3.2a.16.16,0,0,1,.25-.2,11.38,11.38,0,0,0,6.7,2.5c.14-.43-.54-5.78-.29-5.78a13.58,13.58,0,0,1,3.52,1.09c-.22-7.06-1.56-14-1.67-21.05a.22.22,0,0,1,.42-.07c1.92,7.2,2.35,15.31,2.76,22.59C192,248.59,188.8,247.15,188.19,246.84Z" style="fill:#263238"></path><path d="M143.94,234.36a13.36,13.36,0,0,0,9.86-8.77c28.24-.69,37.58-18.21,37.58-18.21,5.42,14.75,10.26,17.28,11.05,19.5,0,0,2.35-12.79-1.92-22.54-3.78-8.63-13.48-17.87-28.74-15.91-8.65,1.11-15.93,8.6-15.93,8.6s-9.35,1-13.18,8.52C136.24,218.19,143.94,234.36,143.94,234.36Z" style="fill:#263238"></path><path d="M191.81,206.26a22.88,22.88,0,0,1-5.62,9.78,29.5,29.5,0,0,1-9.34,6.51l-2.68,1c-.91.31-1.84.5-2.76.75a35.78,35.78,0,0,1-5.61,1c-1.89.17-3.79.14-5.68.21-1.88-.17-3.76-.3-5.63-.5,1.89-.06,3.76,0,5.63-.06,1.86-.19,3.73-.26,5.57-.52a41.38,41.38,0,0,0,10.7-2.92,30.13,30.13,0,0,0,9.17-6.08A26.48,26.48,0,0,0,191.81,206.26Z" style="fill:#263238"></path><path d="M172.94,246.72a10.48,10.48,0,1,1,12.65-10.66h0a10.49,10.49,0,0,1-10.06,10.88A11.06,11.06,0,0,1,172.94,246.72ZM177,227.59a9.33,9.33,0,0,0-2.25-.19,9.06,9.06,0,1,0,2.25.19Z" style="fill:#455a64"></path><path d="M196.89,248.83c-3.92-.84-6.62-5.61-6.11-11.05a12.48,12.48,0,0,1,2.88-7.09,6.53,6.53,0,0,1,11.13,1,12.48,12.48,0,0,1,1.52,7.5c-.54,5.75-4.46,10.11-8.74,9.71C197.34,248.91,197.11,248.88,196.89,248.83Zm3-19.28a3,3,0,0,0-.52-.08,5.58,5.58,0,0,0-4.68,2.14,11.14,11.14,0,0,0-2.54,6.3c-.47,5,2,9.3,5.53,9.63s6.75-3.46,7.21-8.44a11.12,11.12,0,0,0-1.33-6.66A5.77,5.77,0,0,0,199.91,229.55Z" style="fill:#455a64"></path><path d="M185.13,237.23l-.8-1.15c1.71-1.18,5.53-2.62,7.83.34l-1.11.86C189,234.62,185.29,237.13,185.13,237.23Z" style="fill:#455a64"></path><path d="M138.4,235.57l-1.18-.76c.35-.55,3.54-5.38,6.7-5.59,3-.19,21.48,3.31,22.27,3.46l-.26,1.37c-5.31-1-19.64-3.59-21.92-3.43C141.93,230.76,139.25,234.24,138.4,235.57Z" style="fill:#455a64"></path><path d="M148.92,235.42s-5.72-11.19-10.7-9.29-1.67,17.43,3.48,20.21a5.58,5.58,0,0,0,7.82-1.94Z" style="fill:#f7a9a0"></path><path d="M139.28,230.56c-.09,0-.12.1-.05.14,3.6,2.07,5.11,5.88,6,9.74-.94-1.57-2.37-2.55-4.45-1.47a.12.12,0,0,0,.07.22,3.43,3.43,0,0,1,3.58,1.71,16.75,16.75,0,0,1,1.37,3.27c.13.37.77.27.7-.14a.29.29,0,0,1,0-.09C147.26,239.09,144.43,231.77,139.28,230.56Z" style="fill:#263238"></path></g><g id="freepik--Lines--inject-44"><path d="M280.64,417.75a84.3,84.3,0,0,1-9.66-1.47,82.29,82.29,0,0,1-9.47-2.45,95.37,95.37,0,0,1,19.13,3.92Z" style="fill:#263238"></path><path d="M308.46,409.22c-.39-3.83-.48-7.66-.5-11.49a113.43,113.43,0,0,1,.5-11.5,113.43,113.43,0,0,1,.5,11.5C308.94,401.56,308.85,405.39,308.46,409.22Z" style="fill:#263238"></path><path d="M298.69,409.38a104.48,104.48,0,0,1-6.05-9,102.07,102.07,0,0,1-5.19-9.54,116.86,116.86,0,0,1,11.24,18.57Z" style="fill:#263238"></path><path d="M263.65,391.7c2.22,1.71,4.37,3.5,6.51,5.3s4.23,3.64,6.32,5.5,4.15,3.74,6.17,5.67l3,2.89c1,1,2,2,3,3-1.11-.85-2.19-1.74-3.28-2.61l-3.22-2.69c-2.14-1.79-4.23-3.64-6.32-5.5s-4.15-3.74-6.17-5.67S265.6,393.72,263.65,391.7Z" style="fill:#263238"></path><path d="M326.62,416a84.79,84.79,0,0,1,9.46-2.45,82.33,82.33,0,0,1,9.67-1.47A95.75,95.75,0,0,1,326.62,416Z" style="fill:#263238"></path><path d="M342,389.74c-1.94,2-4,3.95-6,5.87s-4.1,3.8-6.17,5.67-4.18,3.71-6.33,5.5l-3.21,2.69c-1.1.87-2.17,1.76-3.29,2.61,1-1,2-2,3-3l3-2.89c2-1.93,4.1-3.8,6.17-5.67s4.18-3.71,6.33-5.5S339.79,391.45,342,389.74Z" style="fill:#263238"></path></g><g id="freepik--Lamp--inject-44"><polygon points="432.93 408.08 435.77 407.7 431.17 296.65 398.18 250.18 395.72 252.2 428.53 298.46 432.93 408.08" style="fill:#263238"></polygon><path d="M433.88,297.56a4,4,0,1,1-4-4A4,4,0,0,1,433.88,297.56Z" style="fill:#4E09B2"></path><path d="M401.31,251.6a4,4,0,1,1-4-4A4,4,0,0,1,401.31,251.6Z" style="fill:#4E09B2"></path><polygon points="369.89 253.17 385.44 276.94 395.72 267.57 401.98 261.86 390.31 244.06 382.57 247.51 369.89 253.17" style="fill:#4E09B2"></polygon><polygon points="369.89 253.17 385.44 276.94 395.72 267.57 382.57 247.51 369.89 253.17" style="opacity:0.1"></polygon><polygon points="341.15 259.36 368.28 300.8 394.19 276.42 373.86 245.36 341.15 259.36" style="fill:#4E09B2"></polygon><polygon points="408.4 417.76 457.31 417.76 454.3 402.4 411.4 402.4 408.4 417.76" style="fill:#4E09B2"></polygon></g><g id="freepik--speech-bubbles--inject-44"><path d="M248.84,156.58a30.27,30.27,0,0,1-50.58,19.15L183.11,178l7.58-13.1a30,30,0,0,1-2.08-14.57,30.28,30.28,0,1,1,60.23,6.3Z" style="fill:#fff"></path><path d="M248.84,156.58a30.43,30.43,0,0,1-6.11,15.34,27.26,27.26,0,0,1-5.94,5.87,30.53,30.53,0,0,1-15.45,6,31.15,31.15,0,0,1-4.21.08,25.79,25.79,0,0,1-4.19-.44,30.5,30.5,0,0,1-15-7.39l.36.11-15.13,2.32-1.1.17.55-1,7.54-13.12,0,.52a30.62,30.62,0,0,1,1.87-27,31,31,0,0,1,9.48-10.1,30.58,30.58,0,0,1,47.35,28.59Zm0,0a30,30,0,0,0-34.33-32.77A29.72,29.72,0,0,0,202,128.75a31.13,31.13,0,0,0-9.06,9.88,30,30,0,0,0-3.84,12.81,30.31,30.31,0,0,0,2.13,13.19l.11.27-.14.25-7.63,13.07-.54-.8,15.16-2.12.21,0,.15.14a29.75,29.75,0,0,0,14.5,7.46,24.68,24.68,0,0,0,4.11.5,28.6,28.6,0,0,0,4.14,0,30,30,0,0,0,8.09-1.78,28.33,28.33,0,0,0,7.3-3.94,33.78,33.78,0,0,0,3.2-2.67,32.75,32.75,0,0,0,2.75-3.13A30.35,30.35,0,0,0,248.84,156.58Z" style="fill:#263238"></path><path d="M235.61,154.35a3.67,3.67,0,1,1-3.67-3.67A3.66,3.66,0,0,1,235.61,154.35Z" style="fill:#263238"></path><path d="M222.47,154.35a3.67,3.67,0,1,1-3.66-3.67A3.66,3.66,0,0,1,222.47,154.35Z" style="fill:#263238"></path><path d="M209.34,154.35a3.67,3.67,0,1,1-3.67-3.67A3.66,3.66,0,0,1,209.34,154.35Z" style="fill:#263238"></path><rect x="218.22" y="197.3" width="81.54" height="44.97" style="fill:#455a64"></rect><polygon points="284.04 242.27 299.76 242.27 299.76 253.64 284.04 242.27" style="fill:#455a64"></polygon><rect x="228.14" y="205.6" width="36.97" height="1.01" style="fill:#fff"></rect><rect x="228.14" y="211.07" width="62.09" height="1.01" style="fill:#fff"></rect><rect x="228.14" y="216.54" width="62.09" height="1.01" style="fill:#fff"></rect><rect x="228.14" y="222.01" width="50.19" height="1.01" style="fill:#fff"></rect><rect x="228.14" y="227.48" width="62.09" height="1.01" style="fill:#fff"></rect><rect x="228.14" y="232.95" width="22.84" height="1.01" style="fill:#fff"></rect><rect x="246.05" y="258.63" width="80.99" height="33.36" style="fill:#4E09B2"></rect><polygon points="327.04 302.7 327.04 291.98 310.78 291.98 327.04 302.7" style="fill:#4E09B2"></polygon><rect x="255.9" y="266.93" width="61.41" height="1.01" style="fill:#fff"></rect><rect x="255.9" y="272.4" width="35.04" height="1.01" style="fill:#fff"></rect><rect x="255.9" y="277.87" width="47.36" height="1.01" style="fill:#fff"></rect><rect x="255.9" y="283.34" width="16.5" height="1.01" style="fill:#fff"></rect></g><g id="freepik--Device--inject-44"><rect x="260.86" y="421.56" width="8.13" height="5.31" style="fill:#ebebeb"></rect><rect x="271.4" y="421.21" width="8.13" height="5.31" style="fill:#ebebeb"></rect><rect x="281.95" y="420.86" width="8.13" height="5.31" style="fill:#ebebeb"></rect><rect x="292.49" y="420.51" width="8.13" height="5.31" style="fill:#ebebeb"></rect><rect x="303.04" y="420.16" width="8.13" height="5.31" style="fill:#ebebeb"></rect><rect x="313.58" y="419.81" width="8.13" height="5.31" style="fill:#ebebeb"></rect><rect x="324.12" y="419.46" width="8.13" height="5.31" style="fill:#ebebeb"></rect><rect x="334.67" y="419.11" width="8.13" height="5.31" style="fill:#ebebeb"></rect><rect x="345.21" y="418.76" width="8.13" height="5.31" style="fill:#ebebeb"></rect><polygon points="355.33 429.93 258.87 429.93 258.87 423.46 355.33 420.77 355.33 429.93" style="fill:#dbdbdb"></polygon><polygon points="427.27 407.56 292.87 407.56 314.24 307.5 448.64 307.5 427.27 407.56" style="fill:#ebebeb"></polygon><polygon points="432.24 407.56 297.84 407.56 319.21 307.5 453.61 307.5 432.24 407.56" style="fill:#dbdbdb"></polygon><ellipse cx="379.03" cy="351.73" rx="8.99" ry="7.68" transform="translate(-138.05 350.62) rotate(-42.74)" style="fill:#fff"></ellipse><polygon points="394.23 433.69 328.13 433.69 328.13 428.55 394.23 426.42 394.23 433.69" style="fill:#ebebeb"></polygon><polygon points="412.2 433.68 376.71 433.68 355.33 377.61 390.82 377.61 412.2 433.68" style="fill:#ebebeb"></polygon><polygon points="418.04 433.68 382.55 433.68 361.18 377.61 396.67 377.61 418.04 433.68" style="fill:#a6a6a6"></polygon><path d="M250,435.05H181.89c-5.81,0,2.6-16.56,23.83-22.91S256.74,428.84,250,435.05Z" style="fill:#dbdbdb"></path><path d="M223.3,435.05a20.68,20.68,0,0,1,.93-5.56,23.34,23.34,0,0,1,2.3-5.19,18.59,18.59,0,0,1,3.61-4.39,16,16,0,0,1,4.79-3c-.73.6-1.56,1-2.23,1.67l-1,.89-1,1a23.74,23.74,0,0,0-3.3,4.35,32.65,32.65,0,0,0-2.42,4.93A41.28,41.28,0,0,0,223.3,435.05Z" style="fill:#263238"></path><path d="M231.38,419.29a42.16,42.16,0,0,1,5.88,2.4,41,41,0,0,1,5.48,3.26,24.52,24.52,0,0,1,4.75,4.3,15.17,15.17,0,0,1,1.76,2.71,8,8,0,0,1,.79,3.09,9.09,9.09,0,0,0-1.22-2.86,14.92,14.92,0,0,0-1.91-2.43,33.75,33.75,0,0,0-4.75-4c-1.69-1.22-3.48-2.31-5.27-3.39-.9-.54-1.81-1.06-2.74-1.56S232.31,419.8,231.38,419.29Z" style="fill:#263238"></path></g><g id="freepik--Mug--inject-44"><path d="M123.6,401.61s24.3-11.2,24.3-26.21-31.52-24.67-31.52-36.4,13.75-18.64,13.75-18.64-21.72,7.42-21.72,22.26,20.78,24.89,22.77,34.34C133.94,390.07,123.6,401.61,123.6,401.61Z" style="fill:#dbdbdb;opacity:0.6000000000000001"></path><path d="M124.8,401.61s-24.31-8.8-24.31-20.6S132,361.61,132,352.38s-13.74-14.65-13.74-14.65S140,343.56,140,355.23s-23.86,19.69-25.57,29.17C112.74,393.69,124.8,401.61,124.8,401.61Z" style="fill:#dbdbdb;opacity:0.6000000000000001"></path><rect x="112.29" y="439.36" width="23.12" height="3.61" style="fill:#455a64"></rect><rect x="112.29" y="439.36" width="23.12" height="2.38" style="fill:#263238"></rect><path d="M84.85,429.65a13.06,13.06,0,0,0,13,5.57,12.53,12.53,0,0,0,2.34-.67,16.65,16.65,0,0,0,3.27-1.72l-2.94-4.36a10,10,0,0,1-1.73,1c-5.51,2.5-9-1.85-9.68-2.84C86,422.17,84.83,412,88,408.08c.21-.29,1.14-.75,4.86.05.69.15,1.47.32,2.35.57a9.2,9.2,0,0,0,2.11.45l.1-2.61.25-2.61c-.24,0-.61-.15-1.1-.29a33.3,33.3,0,0,0-5.26-1.09c-2.74-.29-5.61,0-7.37,2.21C78.76,411.15,80.88,424.07,84.85,429.65Z" style="fill:#455a64"></path><path d="M100.54,428.47a10,10,0,0,1-1.73,1l1.4,5.09a16.65,16.65,0,0,0,3.27-1.72Z" style="fill:#263238"></path><path d="M91.35,402.55l1.55,5.58c.69.15,1.47.32,2.35.57a9.2,9.2,0,0,0,2.11.45l.1-2.61.25-2.61c-.24,0-.61-.15-1.1-.29A33.3,33.3,0,0,0,91.35,402.55Z" style="fill:#263238"></path><path d="M154.61,395.73s-2.78,23.56-7.57,33.49-11.47,11-15.63,11H116.29c-4.15,0-10.84-1.11-15.63-11s-7.56-33.49-7.56-33.49Z" style="fill:#455a64"></path><path d="M103.14,402.46a2.73,2.73,0,1,1-2.73-2.73A2.73,2.73,0,0,1,103.14,402.46Zm21.37-3.3a2.73,2.73,0,1,0,2.73,2.73A2.73,2.73,0,0,0,124.51,399.16Zm0,34.29a2.73,2.73,0,1,0,2.73,2.73A2.73,2.73,0,0,0,124.51,433.45ZM144.31,418a2.73,2.73,0,1,0,2.73,2.73A2.73,2.73,0,0,0,144.31,418ZM114,426.05a2.73,2.73,0,1,0,2.73,2.73A2.73,2.73,0,0,0,114,426.05ZM146,399.16a2.73,2.73,0,1,0,2.73,2.73A2.73,2.73,0,0,0,146,399.16Zm-21.85,18.4a2.73,2.73,0,1,0,2.73,2.73A2.73,2.73,0,0,0,124.18,417.56Zm-20.7.43a2.73,2.73,0,1,0,2.73,2.73A2.73,2.73,0,0,0,103.48,418Zm31.93-9.14a2.73,2.73,0,1,0,2.73,2.73A2.73,2.73,0,0,0,135.41,408.85Zm-.74,17.65a2.73,2.73,0,1,0,2.72,2.73A2.73,2.73,0,0,0,134.67,426.5Zm-22-17.65a2.73,2.73,0,1,0,2.72,2.73A2.73,2.73,0,0,0,112.68,408.85Z" style="fill:#37474f"></path></g></svg>